<svg width="101" height="101" viewBox="0 0 101 101" fill="none" xmlns="http://www.w3.org/2000/svg">
<path d="M64.1511 33.1332C65.0226 33.1334 65.7297 32.4271 65.7297 31.5555C65.7297 30.6839 65.0236 29.9772 64.152 29.9769L36.7978 29.969C35.9262 29.9687 35.2192 30.6751 35.2192 31.5467C35.2192 32.4182 35.9253 33.125 36.7969 33.1252L64.1511 33.1332ZM50.2603 72.0354L50.4744 72.0498C51.2734 72.0498 51.9337 71.4561 52.0382 70.6859L52.0526 70.4717L52.0505 41.6762L59.8818 49.5044C60.4421 50.0646 61.3189 50.1154 61.9366 49.657L62.1136 49.5042C62.6738 48.9438 62.7246 48.0671 62.2662 47.4493L62.1134 47.2724L51.5975 36.7586C51.0375 36.1987 50.1613 36.1476 49.5436 36.6054L49.3666 36.758L38.8385 47.2717C38.2218 47.8876 38.2211 48.8868 38.8369 49.5035C39.3968 50.0642 40.2735 50.1157 40.8916 49.6577L41.0688 49.505L48.8942 41.6909L48.8963 70.4717C48.8963 71.2707 49.49 71.9309 50.2603 72.0354Z" fill="#737373"/>
</svg>
