<svg width="161" height="32" viewBox="0 0 161 32" fill="none" xmlns="http://www.w3.org/2000/svg">
<path d="M30.5352 31H25.9258V12.875C25.9258 11.3906 26.0169 9.57422 26.1992 7.42578H26.1211C25.8346 8.64974 25.5807 9.52865 25.3594 10.0625L17 31H13.7969L5.41797 10.2188C5.18359 9.60677 4.9362 8.67578 4.67578 7.42578H4.59766C4.70182 8.54557 4.75391 10.375 4.75391 12.9141V31H0.457031V2.99219H7L14.3633 21.6445C14.9232 23.0768 15.2878 24.1445 15.457 24.8477H15.5547C16.0365 23.3763 16.4271 22.2826 16.7266 21.5664L24.2266 2.99219H30.5352V31ZM38.0266 6.80078C37.2844 6.80078 36.6464 6.5599 36.1125 6.07812C35.5917 5.59635 35.3312 4.98438 35.3312 4.24219C35.3312 3.5 35.5917 2.88151 36.1125 2.38672C36.6464 1.89193 37.2844 1.64453 38.0266 1.64453C38.7948 1.64453 39.4458 1.89193 39.9797 2.38672C40.5135 2.88151 40.7805 3.5 40.7805 4.24219C40.7805 4.94531 40.5135 5.55078 39.9797 6.05859C39.4458 6.55339 38.7948 6.80078 38.0266 6.80078ZM40.2727 31H35.7414V11H40.2727V31ZM59.3266 30.082C57.725 31.0065 55.8305 31.4688 53.643 31.4688C50.6742 31.4688 48.2784 30.5443 46.4555 28.6953C44.6326 26.8333 43.7211 24.4245 43.7211 21.4688C43.7211 18.1745 44.6977 15.5312 46.6508 13.5391C48.6169 11.5339 51.2406 10.5312 54.5219 10.5312C56.3448 10.5312 57.9529 10.8503 59.3461 11.4883V15.707C57.9529 14.6654 56.4685 14.1445 54.893 14.1445C52.9789 14.1445 51.4099 14.7956 50.1859 16.0977C48.962 17.3867 48.35 19.0794 48.35 21.1758C48.35 23.2461 48.9229 24.8802 50.0687 26.0781C51.2276 27.276 52.7771 27.875 54.7172 27.875C56.3448 27.875 57.8812 27.2956 59.3266 26.1367V30.082ZM74.2398 15.3164C73.693 14.8867 72.9052 14.6719 71.8766 14.6719C70.5354 14.6719 69.4156 15.2773 68.5172 16.4883C67.6188 17.6992 67.1695 19.3464 67.1695 21.4297V31H62.6383V11H67.1695V15.1211H67.2477C67.6904 13.7148 68.3674 12.6211 69.2789 11.8398C70.2034 11.0456 71.232 10.6484 72.3648 10.6484C73.1852 10.6484 73.8102 10.7721 74.2398 11.0195V15.3164ZM84.7586 31.4688C81.6727 31.4688 79.2052 30.5378 77.3562 28.6758C75.5203 26.8008 74.6023 24.3203 74.6023 21.2344C74.6023 17.875 75.5594 15.2513 77.4734 13.3633C79.4005 11.4753 81.9917 10.5312 85.2469 10.5312C88.3719 10.5312 90.8068 11.4492 92.5516 13.2852C94.2964 15.1211 95.1687 17.6667 95.1687 20.9219C95.1687 24.112 94.2247 26.6706 92.3367 28.5977C90.4617 30.5117 87.9357 31.4688 84.7586 31.4688ZM84.9734 14.1445C83.2026 14.1445 81.8029 14.763 80.7742 16C79.7456 17.237 79.2312 18.9427 79.2312 21.1172C79.2312 23.2135 79.7521 24.8672 80.7937 26.0781C81.8354 27.276 83.2286 27.875 84.9734 27.875C86.7573 27.875 88.1245 27.2826 89.075 26.0977C90.0385 24.9128 90.5203 23.2266 90.5203 21.0391C90.5203 18.8385 90.0385 17.1393 89.075 15.9414C88.1245 14.7435 86.7573 14.1445 84.9734 14.1445ZM97.3477 30.375V26.1758C99.0404 27.4648 100.909 28.1094 102.953 28.1094C105.688 28.1094 107.055 27.3021 107.055 25.6875C107.055 25.2318 106.938 24.8477 106.703 24.5352C106.469 24.2096 106.15 23.9232 105.746 23.6758C105.355 23.4284 104.887 23.207 104.34 23.0117C103.806 22.8164 103.207 22.5951 102.543 22.3477C101.723 22.0221 100.98 21.6771 100.316 21.3125C99.6654 20.9479 99.1185 20.5378 98.6758 20.082C98.2461 19.6133 97.9206 19.0859 97.6992 18.5C97.4779 17.9141 97.3672 17.2305 97.3672 16.4492C97.3672 15.4857 97.5951 14.6393 98.0508 13.9102C98.5065 13.168 99.1185 12.5495 99.8867 12.0547C100.655 11.5469 101.527 11.1693 102.504 10.9219C103.48 10.6615 104.49 10.5312 105.531 10.5312C107.38 10.5312 109.034 10.8112 110.492 11.3711V15.3359C109.086 14.3724 107.471 13.8906 105.648 13.8906C105.076 13.8906 104.555 13.9492 104.086 14.0664C103.63 14.1836 103.24 14.3464 102.914 14.5547C102.589 14.763 102.335 15.0169 102.152 15.3164C101.97 15.6029 101.879 15.9219 101.879 16.2734C101.879 16.7031 101.97 17.0677 102.152 17.3672C102.335 17.6667 102.602 17.9336 102.953 18.168C103.318 18.3893 103.747 18.5977 104.242 18.793C104.75 18.9753 105.329 19.1771 105.98 19.3984C106.84 19.75 107.608 20.1081 108.285 20.4727C108.975 20.8372 109.561 21.2539 110.043 21.7227C110.525 22.1784 110.896 22.7122 111.156 23.3242C111.417 23.9232 111.547 24.6393 111.547 25.4727C111.547 26.4883 111.312 27.3737 110.844 28.1289C110.375 28.8841 109.75 29.5091 108.969 30.0039C108.188 30.4987 107.283 30.8633 106.254 31.0977C105.238 31.3451 104.164 31.4688 103.031 31.4688C100.844 31.4688 98.9492 31.1042 97.3477 30.375ZM123.53 31.4688C120.445 31.4688 117.977 30.5378 116.128 28.6758C114.292 26.8008 113.374 24.3203 113.374 21.2344C113.374 17.875 114.331 15.2513 116.245 13.3633C118.172 11.4753 120.764 10.5312 124.019 10.5312C127.144 10.5312 129.579 11.4492 131.323 13.2852C133.068 15.1211 133.941 17.6667 133.941 20.9219C133.941 24.112 132.997 26.6706 131.109 28.5977C129.234 30.5117 126.708 31.4688 123.53 31.4688ZM123.745 14.1445C121.974 14.1445 120.575 14.763 119.546 16C118.517 17.237 118.003 18.9427 118.003 21.1172C118.003 23.2135 118.524 24.8672 119.566 26.0781C120.607 27.276 122.001 27.875 123.745 27.875C125.529 27.875 126.896 27.2826 127.847 26.0977C128.81 24.9128 129.292 23.2266 129.292 21.0391C129.292 18.8385 128.81 17.1393 127.847 15.9414C126.896 14.7435 125.529 14.1445 123.745 14.1445ZM148.014 5.08203C147.402 4.73047 146.705 4.55469 145.924 4.55469C143.724 4.55469 142.623 5.79818 142.623 8.28516V11H147.272V14.5547H142.643V31H138.112V14.5547H134.694V11H138.112V7.75781C138.112 5.64844 138.802 3.98828 140.182 2.77734C141.562 1.55339 143.288 0.941406 145.358 0.941406C146.478 0.941406 147.363 1.0651 148.014 1.3125V5.08203ZM160.584 30.7852C159.698 31.2279 158.533 31.4492 157.087 31.4492C153.207 31.4492 151.267 29.5872 151.267 25.8633V14.5547H147.927V11H151.267V6.37109L155.798 5.08203V11H160.584V14.5547H155.798V24.5547C155.798 25.7396 156.013 26.5859 156.443 27.0938C156.873 27.6016 157.589 27.8555 158.591 27.8555C159.36 27.8555 160.024 27.6341 160.584 27.1914V30.7852Z" fill="#707070"/>
</svg>
