<?xml version="1.0" encoding="UTF-8"?>
<svg id="Layer_1" data-name="Layer 1" xmlns="http://www.w3.org/2000/svg" viewBox="0 0 544 552">
  <defs>
    <style>
      .cls-1 {
        fill: #3a54a4;
      }

      .cls-2 {
        fill: #cbcbcb;
      }

      .cls-3 {
        fill: #46403c;
      }

      .cls-4 {
        fill: #bfc7df;
      }

      .cls-5 {
        fill: #3f5daa;
      }

      .cls-6 {
        fill: #f1b089;
      }

      .cls-7 {
        fill: #cfcfcf;
      }

      .cls-8 {
        fill: #d7d7d7;
      }

      .cls-9 {
        fill: #334b9e;
      }

      .cls-10 {
        fill: #222223;
      }

      .cls-11 {
        fill: #eb3d3a;
      }

      .cls-12 {
        fill: #262629;
      }

      .cls-13 {
        fill: #d6d7d7;
      }

      .cls-14 {
        fill: #f1ae86;
      }

      .cls-15 {
        fill: #3852a4;
      }
    </style>
  </defs>
  <path class="cls-8" d="M245.16,375.01c-7.07-1.73-12.12-6.92-17.42-11.2-10.96-8.85-21.84-17.86-31.55-28.16-17.26-18.31-32.09-38.4-44.45-60.31-15.21-26.95-26.05-55.57-32.24-85.86-2.51-12.3-3.65-24.83-4.7-37.4-1.05-12.51-.61-24.89,.44-37.24,1.49-17.49,4.2-34.84,10.14-51.5,.33-.93,.58-1.91,.68-2.88,.4-4.27,2.21-4.82,5.97-2.98,15.72,7.69,32.21,13.49,49.6,15.31,21.4,2.23,41.99-1.19,61.09-12.01,11.19-6.34,21.3-14.02,30.68-22.7,3.01-2.79,4.83-2.07,6.65,.97-1.6,1.44-.89,2.82-.16,4.46,2.36,5.24,4.19,10.75,6.84,15.83,2.57,4.92,3,11.4,8.09,14.51,13.98,8.52,26.12,19.12,37.39,30.9,15.98,16.69,28.72,35.39,37.28,56.96,6.25,15.76,11.28,31.72,12.64,48.75,.23,2.88-.32,6.38,2.39,8.75-1.86,3.69-3.92,7.26-6.48,10.52-.68-2.17-1.75-3.14-3.91-1.44-3.11,2.44-6.43,4.55-9.94,6.42-1.81,.96-3.08,2.9-2.99,4.88,.21,4.53-2.35,7.3-5.41,9.92-2.32-1.28-3.76,.57-5.32,1.63-7.26,4.99-14.44,10.1-21.72,15.08-.86,.59-2.03,2.6-3.15,.64-2.34-4.12-6.05-7.64-6.08-12.86,1.35-7.45,.42-14.72-1.73-21.89,.03-9.45,.06-18.9,.09-28.35,2.47-2.39,4.8-4.98,8.75-4.7,1.67,.12,3.58-1.09,3.05-2.42-1.89-4.74,2.06-8.07,2.4-12.19q6.06,2.14,7.2-4.4c.11-.65,.34-1.29,.45-1.94,3.19-17.99-5.63-34.78-22.18-42.03-20.21-8.85-52.6-2.78-59.26,33.33-4.04,21.89-3.87,44.37-6.28,66.52-.3,2.74,1.64,3.76,3.07,5.27-2.93,26.52-5.85,53.05-8.8,79.57-.79,7.11-.89,13.98,5.02,19.32-1.96,11.66-3.29,23.44-6.12,34.95Z"/>
  <path class="cls-7" d="M384.51,219.18c-2.71-2.37-2.16-5.87-2.39-8.75-1.35-17.03-6.38-32.99-12.64-48.75-8.56-21.57-21.3-40.27-37.28-56.96-11.27-11.77-23.41-22.38-37.39-30.9-5.09-3.1-5.52-9.59-8.09-14.51-2.65-5.08-4.48-10.59-6.84-15.83-.74-1.64-1.44-3.02,.16-4.46,10.51,7.78,20.61,16.14,32.4,22.05,11,5.51,22.32,9.54,34.67,11.14,14.91,1.93,29.4,.3,43.76-3.27,9.15-2.28,17.99-5.66,26.57-9.65,1.79-.83,3.66-1.49,5.5-2.23,1.6,5.91,3.32,11.8,4.76,17.75,4.1,16.93,6.69,34.11,7.16,51.53,.36,13.1-.1,26.16-1.73,39.25-1.91,15.33-4.84,30.4-9.08,45.19-6.97,24.33-17.22,47.29-30.34,68.93-7.73,12.76-16.46,24.86-26.28,36.08-2.65,3.03-4.3,7.39-9.47,9.06,.65-1.7,.89-2.82,1.46-3.74,5.71-9.24,9.97-19.15,13.6-29.34,4.4-12.35,7.84-24.96,8.85-38.1,4.45-6.12,5.03-12.52,1.64-18,.3-.59,.56-1.21,.91-1.76,3-4.78,6.09-9.51,9-14.35,1.1-1.82,1.27-4.01-.71-5.36-2.13-1.45-4.13-.66-5.64,1.33-.9,1.18-1.71,2.43-2.56,3.65Z"/>
  <path class="cls-10" d="M245.16,375.01c2.82-11.51,4.15-23.29,6.12-34.95,15.45,4.03,31.38,4.28,47.13,5.81,3.84,.37,7.4-1.42,9.75-4.85,.66-.55,1.31-1.1,1.97-1.64,5.9,7.97,11.8,15.95,17.69,23.92,4.38,7.04,9.3,13.69,14.58,20.07,1.95,2.36,3.53,4.83,3.82,7.92,2.31,25.26,4.6,50.52,6.89,75.78-2.41,.63-4.82,1.23-7.22,1.89-6.88,1.91-13.34,5.21-20.49,6.2-.41-7.8-1.48-15.53-2.85-23.21-.2-.66-.39-1.32-.59-1.97-.18-1.68-.36-3.36-.54-5.04,.06-.14,.21-.33,.16-.42-.13-.26-.34-.48-.52-.72-.16-1.61-.32-3.23-.48-4.84,.27-.82,.07-1.51-.55-2.09-.16-1.61-.33-3.22-.49-4.83,.27-.81,.02-1.49-.54-2.09-.17-1.63-.35-3.27-.52-4.9-.17-.7-.34-1.39-.51-2.09-.11-1.31-.22-2.62-.34-3.93,.28-1.13,.03-2.14-.65-3.07-.12-1.31-.24-2.62-.36-3.92,.28-1.13,.03-2.15-.66-3.07-.18-1.63-.36-3.27-.54-4.9,.31-.8,.08-1.48-.45-2.1-.13-.65-.26-1.31-.38-1.96,.04-.48-.16-.68-.64-.54-5.38-5.14-10.75-10.28-16.13-15.42-4.57-5.16-9.14-10.32-14.53-16.4-2,9.9-4.05,18.52-4.68,27.42-.56,3.53-2.76,5.94-5.49,7.96-20.84,15.41-43.61,27.6-66.36,39.8-3.24,1.73-6.36,3.53-9.16,5.88,.18-1.76-.82-3.15-1.53-4.61-3.58-7.38-7.18-14.75-10.78-22.13,17.08-10.65,33.96-21.66,51.35-31.78,6.39-3.72,8.69-8.41,8.49-15.17Z"/>
  <path class="cls-2" d="M366.87,481.06c18.49-.03,36.98-.16,55.47-.06,8.19,.04,13.56,5.53,13.64,13.39,.08,7.94-5.07,13.17-13.32,13.53-.67,.03-1.33,0-2,0-95.46,0-190.91-.01-286.37,.05-3.69,0-6.91-.86-9.75-3.1-4.42-3.5-6.48-9.2-5.04-13.68,1.8-5.63,6.9-9.68,12.95-10.19,1.65-.14,3.33-.05,5-.05,62.47,0,124.94-.01,187.41-.02,.06,4.15,.27,8.3,.12,12.44-.13,3.8,1.41,5.21,5.22,5.53,4.18,.35,5.62-1.75,6.35-5.16,.78-3.61,2.39-4.78,5.76-2.33,9.85,7.16,21.11,7.98,32.73,7.09,1.87-.14,3.78-.32,4.61-2.31,.82-1.98-.86-3.02-1.98-4.17-3.58-3.68-7.2-7.32-10.81-10.97Z"/>
  <path class="cls-13" d="M327.82,363.29c-5.9-7.97-11.8-15.95-17.7-23.92,1.71-12.69,3.07-25.41,3.96-38.18,1.04-.9,.06-4.08,3.4-2.42,6.16,3.07,11.59,1.18,16.3-3.43,10.35-10.12,20.72-20.22,31.04-30.37,1.13-1.11,2.81-1.97,2.57-4.01,4.15-3.77,8.18-7.78,14.48-7.3-1.01,13.15-4.44,25.75-8.85,38.11-3.63,10.19-7.89,20.1-13.6,29.34-.57,.92-.81,2.04-1.46,3.74,5.16-1.67,6.81-6.02,9.47-9.06,9.82-11.23,18.55-23.33,26.28-36.08,13.12-21.64,23.37-44.61,30.34-68.93,4.24-14.79,7.17-29.86,9.08-45.19,1.63-13.09,2.09-26.15,1.73-39.25-.48-17.41-3.06-34.59-7.16-51.53-1.44-5.95-3.17-11.83-4.76-17.75,3.26-.47,3.28,2.27,3.87,4.15,4.28,13.45,7.08,27.25,9.07,41.2,1.72,12.01,2.13,24.09,2.15,36.23,.03,20.17-2.59,39.97-7.1,59.57-9.85,42.79-28.6,81.35-55.74,115.73-13.09,16.58-27.97,31.56-44.46,44.87-1.43,1.15-2.8,2.41-2.9,4.46Z"/>
  <path class="cls-1" d="M185.31,421.96c3.6,7.37,7.2,14.74,10.78,22.13,.71,1.46,1.7,2.84,1.53,4.61-2.51,2.16-5.01,4.32-7.51,6.47-3.61-.51-3.02-4.24-4.75-6.2-.96-1.09-1.04-3.8-3.27-2.58-2.12,1.16-.12,2.83,.3,4.26,.9,3.13,4.45,5.47,2.81,9.37-3.03,3.03-6.06,6.06-9.09,9.09-.31,.29-.61,.59-.92,.89-1.82,1.69-3.71,3.31-5.44,5.08-1.53,1.57-3.25,1.46-5.05,.86-1.88-.64-1.57-2.31-1.57-3.78-.01-5.48,.09-10.96-.05-16.43-.06-2.32,.93-4.16,1.92-6.06,2.08-3.96,4.05-7.97,6.29-11.84,1.4-2.41,1.06-3.55-1.75-4.06-1.61-.29-3.1-1.28-4.71-1.5-3.4-.48-4.21-2.43-4.03-5.55,.2-3.4,2.22-4.73,5.13-4.88,6.46-.33,12.92-.5,19.38,.12Z"/>
  <path class="cls-1" d="M366.87,481.06c3.61,3.65,7.23,7.29,10.81,10.97,1.12,1.15,2.8,2.19,1.98,4.17-.83,1.99-2.75,2.16-4.61,2.31-11.62,.9-22.88,.07-32.73-7.09-3.37-2.45-4.98-1.28-5.76,2.33-.73,3.41-2.17,5.51-6.35,5.16-3.81-.32-5.36-1.73-5.22-5.53,.14-4.14-.07-8.3-.12-12.44,.18-1.92,.36-3.85,.54-5.77,7.16-.99,13.62-4.28,20.49-6.2,2.4-.67,4.81-1.26,7.22-1.89,1.8,2.14,3.6,4.27,5.48,6.5-1.87,2.37-5.03,3.05-7.5,4.77-.5,.35-2.34,.13-1.42,1.72,.56,.97,1.37,1.37,2.45,.57,.52-.38,1.17-.57,1.69-.96,4.78-3.53,9.17-3.52,13.06,1.38Z"/>
  <path class="cls-2" d="M278.63,395.06c.63-8.9,2.69-17.52,4.68-27.42,5.38,6.08,9.95,11.24,14.53,16.4-7.28,2.14-13.39,6.33-19.21,11.02Z"/>
  <path class="cls-4" d="M185.2,460.02c1.64-3.9-1.9-6.24-2.81-9.37-.41-1.43-2.42-3.1-.3-4.26,2.23-1.22,2.3,1.48,3.27,2.58,1.73,1.96,1.14,5.69,4.75,6.2,.45,3.73-1.27,5.27-4.91,4.86Z"/>
  <path class="cls-2" d="M315.97,408.95c.69,.92,.93,1.94,.66,3.07-1.88-.67-1.99-1.72-.66-3.07Z"/>
  <path class="cls-2" d="M316.99,415.95c.67,.93,.93,1.94,.65,3.07-1.9-.67-1.99-1.72-.65-3.07Z"/>
  <path class="cls-2" d="M314.98,401.95c.53,.62,.77,1.3,.45,2.1-1.29-.45-1.68-1.1-.45-2.1Z"/>
  <path class="cls-2" d="M317.97,422.95c.17,.7,.34,1.39,.51,2.09-1.33-.42-1.7-1.06-.51-2.09Z"/>
  <path class="cls-2" d="M319,429.94c.56,.6,.81,1.28,.54,2.09-1.34-.4-1.77-1.03-.54-2.09Z"/>
  <path class="cls-2" d="M320.03,436.86c.63,.58,.82,1.28,.55,2.09-.77-.54-.78-1.29-.55-2.09Z"/>
  <path class="cls-2" d="M321.97,449.97c.2,.66,.39,1.32,.59,1.97-.73-.5-.81-1.19-.59-1.97Z"/>
  <path class="cls-2" d="M313.96,399.45c.48-.14,.68,.06,.64,.54-.4,.03-.61-.15-.64-.54Z"/>
  <path class="cls-2" d="M321.07,443.79c.18,.24,.39,.46,.52,.72,.05,.09-.1,.28-.16,.42-.12-.38-.24-.76-.36-1.14Z"/>
  <path class="cls-4" d="M175.19,469.99c.31-.3,.61-.59,.92-.89-.31,.3-.61,.59-.92,.89Z"/>
  <path class="cls-10" d="M255.06,241.16c-1.43-1.51-3.37-2.53-3.07-5.27,2.41-22.15,2.24-44.63,6.28-66.52,6.66-36.11,39.06-42.18,59.26-33.33,16.54,7.25,25.36,24.04,22.18,42.03-.12,.65-.34,1.29-.45,1.94q-1.14,6.54-7.2,4.4c-2.61-1.61-4.92-2.66-6.61,1.33-.71,1.67-2.53,2.6-4.6,1.62-2.09-.99-2.45-2.87-1.55-4.59,1.64-3.14-.1-3.96-2.56-4.9-4.48-1.7-8.87-3.62-13.28-5.48-1.45-.61-3.24-.81-2.88-3.25,.28-1.92-.91-3.11-2.84-3.36-1.82-.24-3.27,.41-4.09,2.12-1.29,2.68-2.53,5.38-3.8,8.08-1.06,.87-.83,2.09-.83,3.22,.02,13.24,.06,26.48,.09,39.71-1.7,.53-3.68-.25-5.21,1.08-.31-.1-.59-.06-.85,.14-.86-.14-1.54,.15-2.03,.87l-.05,.02c-.83-.04-1.41,.36-1.82,1.04l-.15,.08c-.36,.28-.72,.56-1.08,.84-2.67,1.93-4.54,4.39-4.99,7.75-1.91,3.44-.49,7.16-.88,10.73-.47,4.37-2.45,5.88-6.64,4.84-1.44-.36-2.84-.89-4.26-1.33-2.03-1.27-4.07-2.53-6.1-3.8Z"/>
  <path class="cls-5" d="M272.93,230.73c.45-3.36,2.31-5.82,4.99-7.75,.36-.28,.72-.56,1.08-.84,0,0,.15-.08,.15-.08,.78-.05,1.46-.25,1.82-1.04,0,0,.05-.02,.05-.02,.81,.03,1.54-.15,2.03-.87,.26-.2,.54-.24,.85-.14,2.73,0,5.46,0,8.18,0l.38-.08,.39,.03c3.04,1.84,6.44,2.97,8.42,6.48,4.79,8.48,9.97,16.74,14.95,25.12,.79,1.33,1.41,2.68,3.29,2.41,.03,5.22,3.74,8.73,6.08,12.86,1.12,1.97,2.29-.05,3.15-.64,7.27-4.98,14.45-10.09,21.72-15.08,1.55-1.07,2.99-2.91,5.31-1.64,3.87,3.83,7.74,7.67,11.62,11.5,.24,2.03-1.43,2.9-2.57,4.01-10.32,10.15-20.69,20.25-31.04,30.37-4.71,4.61-10.14,6.5-16.3,3.43-3.34-1.66-2.36,1.52-3.4,2.42-.17-2.47-.05-4.95-1.66-7.14-9.44-12.77-19-25.46-28.16-38.42-5.31-7.52-13.3-14-11.33-24.9Z"/>
  <path class="cls-14" d="M289.86,175.99c1.26-2.69,2.51-5.4,3.8-8.08,.82-1.7,2.27-2.36,4.09-2.12,1.93,.25,3.12,1.44,2.84,3.36-.36,2.44,1.43,2.64,2.88,3.25,4.42,1.86,8.81,3.78,13.28,5.48,2.46,.94,4.2,1.76,2.56,4.9-.9,1.72-.55,3.6,1.55,4.59,2.07,.98,3.9,.05,4.6-1.62,1.69-3.99,4.01-2.94,6.61-1.33-.33,4.12-4.28,7.45-2.4,12.19,.53,1.33-1.38,2.54-3.05,2.42-3.95-.29-6.28,2.3-8.75,4.7-7.63,3.32-15.56,4.26-23.77,3.01-.12-6.96-.47-13.93-.28-20.88,.11-4.04-.47-7.45-3.96-9.88Zm24.06,27.06c.66-.15,1.57-.15,1.8-1.18,.23-1.04-.45-1.53-1.31-1.73-1.23-.28-2.06-.89-2.52-2.12-.42-1.11-.57-3.15-2.44-2-1.22,.75-.7,2.48-.18,3.68,.82,1.93,2.19,3.31,4.64,3.34Z"/>
  <path class="cls-9" d="M255.06,241.16c2.03,1.27,4.07,2.53,6.1,3.8-.35,.53-.96,1.04-1.02,1.6-1.41,12.61-2.75,25.24-4.12,37.85-1.25,11.47-2.24,22.97-3.87,34.38-1.33,9.29,2.78,17,11.2,17.97,14.91,1.72,29.88,2.86,44.82,4.24-2.35,3.43-5.91,5.22-9.75,4.85-15.76-1.53-31.68-1.78-47.13-5.81-5.91-5.34-5.82-12.22-5.02-19.32,2.96-26.52,5.87-53.04,8.8-79.57Z"/>
  <path class="cls-6" d="M367.39,260.97c-3.87-3.83-7.75-7.67-11.62-11.5,3.06-2.61,5.62-5.38,5.41-9.92-.09-1.97,1.18-3.92,2.99-4.88,3.51-1.86,6.82-3.98,9.94-6.42,2.16-1.69,3.23-.73,3.92,1.44-.15,.46-.34,.92-.45,1.39-.47,2-4.02,3.41-2.44,5.26,1.59,1.86,4.62,.42,6.99-.14,.48-.11,.92-.35,1.38-.54,3.4,5.48,2.81,11.88-1.64,18-6.3-.49-10.33,3.53-14.48,7.29Z"/>
  <path class="cls-15" d="M319.52,253.96c-1.89,.27-2.51-1.08-3.29-2.41-4.97-8.38-10.16-16.64-14.95-25.12-1.98-3.51-5.37-4.64-8.42-6.48,.12-1.74,.25-3.48,.37-5.22,3.45-.56,6.39,.96,9.34,2.34,6.83,3.2,11.27,8.85,15.21,15,2.16,7.17,3.09,14.44,1.73,21.89Z"/>
  <path class="cls-12" d="M317.78,232.07c-3.94-6.14-8.38-11.79-15.21-15-2.95-1.38-5.89-2.9-9.34-2.34-.32-2.73-.6-5.46,.87-7.99,8.21,1.25,16.14,.3,23.77-3.01-.03,9.45-.06,18.89-.09,28.34Z"/>
  <path class="cls-10" d="M383.51,235.69c-.46,.18-.9,.42-1.38,.54-2.37,.55-5.4,2-6.99,.14-1.58-1.85,1.96-3.26,2.44-5.26,.11-.47,.3-.93,.45-1.39,2.55-3.26,4.61-6.83,6.48-10.52,.85-1.22,1.67-2.46,2.56-3.65,1.5-1.98,3.51-2.77,5.64-1.33,1.98,1.35,1.8,3.54,.71,5.36-2.91,4.84-5.99,9.57-9,14.35-.35,.56-.61,1.17-.91,1.76Z"/>
  <path class="cls-15" d="M308.16,341.01c-14.94-1.38-29.92-2.52-44.82-4.24-8.42-.97-12.53-8.69-11.2-17.97,1.63-11.41,2.62-22.92,3.87-34.38,1.37-12.62,2.71-25.24,4.12-37.85,.06-.57,.67-1.07,1.02-1.6,1.42,.45,2.82,.98,4.26,1.34,4.19,1.04,6.17-.46,6.64-4.84,.38-3.57-1.03-7.29,.88-10.73-1.96,10.9,6.02,17.38,11.33,24.9,9.16,12.97,18.73,25.65,28.16,38.42,1.61,2.18,1.49,4.67,1.66,7.14-.9,12.77-2.25,25.49-3.96,38.18-.66,.55-1.31,1.1-1.97,1.64Z"/>
  <path class="cls-3" d="M294.1,206.75c-1.47,2.53-1.2,5.26-.87,7.99-.12,1.74-.25,3.48-.37,5.22,0,0-.39-.03-.39-.03,0,0-.38,.08-.38,.08-.99-.36-1.98-.72-2.97-1.08-.03-13.24-.07-26.48-.09-39.71,0-1.14-.24-2.35,.83-3.22,3.49,2.43,4.07,5.84,3.96,9.88-.19,6.95,.16,13.92,.28,20.88Z"/>
  <path class="cls-15" d="M289.12,218.92c.99,.36,1.98,.72,2.97,1.08-2.73,0-5.45,0-8.18,0,1.54-1.33,3.51-.54,5.21-1.08Z"/>
  <path class="cls-15" d="M283.06,220.14c-.49,.72-1.21,.9-2.03,.87,.49-.72,1.17-1.01,2.03-.87Z"/>
  <path class="cls-15" d="M280.98,221.03c-.36,.78-1.05,.99-1.82,1.04,.42-.68,.99-1.08,1.82-1.04Z"/>
  <path class="cls-15" d="M279.01,222.14c-.36,.28-.72,.56-1.08,.84,.36-.28,.72-.56,1.08-.84Z"/>
  <path class="cls-11" d="M313.92,203.05c-2.46-.03-3.82-1.4-4.64-3.34-.51-1.21-1.03-2.93,.18-3.68,1.87-1.15,2.02,.89,2.44,2,.46,1.23,1.28,1.84,2.52,2.12,.86,.19,1.55,.68,1.31,1.73-.23,1.03-1.14,1.04-1.8,1.18Z"/>
</svg>