<svg width="48" height="48" viewBox="0 0 48 48" fill="none" xmlns="http://www.w3.org/2000/svg">
<path d="M48 14.6667V39.3333C48 44.1198 44.1198 48 39.3333 48H8.66667C3.8802 48 0 44.1198 0 39.3333V14.6667H48ZM11.3333 32C9.49238 32 8 33.4924 8 35.3333C8 37.1743 9.49238 38.6667 11.3333 38.6667C13.1743 38.6667 14.6667 37.1743 14.6667 35.3333C14.6667 33.4924 13.1743 32 11.3333 32ZM24 32C22.159 32 20.6667 33.4924 20.6667 35.3333C20.6667 37.1743 22.159 38.6667 24 38.6667C25.841 38.6667 27.3333 37.1743 27.3333 35.3333C27.3333 33.4924 25.841 32 24 32ZM11.3333 20C9.49238 20 8 21.4924 8 23.3333C8 25.1743 9.49238 26.6667 11.3333 26.6667C13.1743 26.6667 14.6667 25.1743 14.6667 23.3333C14.6667 21.4924 13.1743 20 11.3333 20ZM24 20C22.159 20 20.6667 21.4924 20.6667 23.3333C20.6667 25.1743 22.159 26.6667 24 26.6667C25.841 26.6667 27.3333 25.1743 27.3333 23.3333C27.3333 21.4924 25.841 20 24 20ZM36.6667 20C34.8257 20 33.3333 21.4924 33.3333 23.3333C33.3333 25.1743 34.8257 26.6667 36.6667 26.6667C38.5076 26.6667 40 25.1743 40 23.3333C40 21.4924 38.5076 20 36.6667 20ZM39.3333 0C44.1198 0 48 3.8802 48 8.66667V10.6667H0V8.66667C0 3.8802 3.8802 0 8.66667 0H39.3333Z" fill="#737373"/>
</svg>
