<svg width="29" height="28" viewBox="0 0 29 28" fill="none" xmlns="http://www.w3.org/2000/svg">
<path d="M14.4298 0.232178C21.9976 0.232178 28.1325 6.27479 28.1325 13.7287C28.1325 21.1827 21.9976 27.2253 14.4298 27.2253C6.86197 27.2253 0.727051 21.1827 0.727051 13.7287C0.727051 6.27479 6.86197 0.232178 14.4298 0.232178ZM19.2673 8.964L19.152 8.86599C18.7944 8.60463 18.3035 8.6014 17.9426 8.85631L17.8139 8.964L14.4298 12.2967L11.0456 8.964L10.9304 8.86599C10.5728 8.60463 10.0819 8.6014 9.72099 8.85631L9.59226 8.964L9.49275 9.07753C9.2274 9.42977 9.22412 9.91324 9.48292 10.2687L9.59226 10.3955L12.9759 13.7287L9.59226 17.0619L9.49275 17.1755C9.2274 17.5277 9.22412 18.0112 9.48292 18.3666L9.59226 18.4934L9.70752 18.5915C10.0651 18.8528 10.556 18.856 10.9169 18.6011L11.0456 18.4934L14.4298 15.1607L17.8139 18.4934L17.9292 18.5915C18.2868 18.8528 18.7776 18.856 19.1385 18.6011L19.2673 18.4934L19.3668 18.3799C19.6321 18.0277 19.6354 17.5442 19.3766 17.1887L19.2673 17.0619L15.8836 13.7287L19.2673 10.3955L19.3668 10.282C19.6321 9.92975 19.6354 9.44628 19.3766 9.0908L19.2673 8.964Z" fill="#D9D9D9"/>
</svg>
