<svg width="28" height="28" viewBox="0 0 28 28" fill="none" xmlns="http://www.w3.org/2000/svg">
<path d="M13.5517 0.232178C21.0057 0.232178 27.0483 6.27479 27.0483 13.7287C27.0483 21.1827 21.0057 27.2253 13.5517 27.2253C6.09778 27.2253 0.0551758 21.1827 0.0551758 13.7287C0.0551758 6.27479 6.09778 0.232178 13.5517 0.232178ZM18.3164 8.964L18.2029 8.86599C17.8507 8.60463 17.3672 8.6014 17.0117 8.85631L16.8849 8.964L13.5517 12.2967L10.2185 8.964L10.105 8.86599C9.75275 8.60463 9.26928 8.6014 8.9138 8.85631L8.78699 8.964L8.68898 9.07753C8.42763 9.42977 8.4244 9.91324 8.67931 10.2687L8.78699 10.3955L12.1197 13.7287L8.78699 17.0619L8.68898 17.1755C8.42763 17.5277 8.4244 18.0112 8.67931 18.3666L8.78699 18.4934L8.90053 18.5915C9.25277 18.8528 9.73623 18.856 10.0917 18.6011L10.2185 18.4934L13.5517 15.1607L16.8849 18.4934L16.9985 18.5915C17.3507 18.8528 17.8342 18.856 18.1896 18.6011L18.3164 18.4934L18.4145 18.3799C18.6758 18.0277 18.679 17.5442 18.4241 17.1887L18.3164 17.0619L14.9837 13.7287L18.3164 10.3955L18.4145 10.282C18.6758 9.92975 18.679 9.44628 18.4241 9.0908L18.3164 8.964Z" fill="#027ADB"/>
</svg>
