<svg width="40" height="40" viewBox="0 0 40 40" fill="none" xmlns="http://www.w3.org/2000/svg">
<path d="M20.6815 13.102C17.971 13.102 15.7737 15.2993 15.7737 18.0098C15.7737 20.7204 17.971 22.9177 20.6815 22.9177C23.392 22.9177 25.5893 20.7204 25.5893 18.0098C25.5893 15.2993 23.392 13.102 20.6815 13.102ZM17.8186 18.0098C17.8186 16.4287 19.1004 15.1469 20.6815 15.1469C22.2626 15.1469 23.5444 16.4287 23.5444 18.0098C23.5444 19.591 22.2626 20.8727 20.6815 20.8727C19.1004 20.8727 17.8186 19.591 17.8186 18.0098ZM31.3111 26.5985L23.0591 35.3584C21.7674 36.7296 19.5876 36.7296 18.2959 35.3584L10.0439 26.5985H10.075L10.0612 26.5822L10.0439 26.5618C9.51689 25.9371 9.04396 25.2653 8.63228 24.5536C7.44913 22.5083 6.77197 20.1336 6.77197 17.6008C6.77197 9.92103 12.9977 3.69531 20.6775 3.69531C28.3573 3.69531 34.583 9.92103 34.583 17.6008C34.583 20.1336 33.9059 22.5083 32.7227 24.5536C32.311 25.2653 31.8381 25.937 31.3111 26.5618L31.2938 26.5822L31.28 26.5985H31.3111ZM29.7215 25.2746C31.4794 23.2052 32.5381 20.5293 32.5381 17.6008C32.5381 11.0504 27.2279 5.74024 20.6775 5.74024C14.1271 5.74024 8.8169 11.0504 8.8169 17.6008C8.8169 20.5293 9.87557 23.2052 11.6335 25.2746L11.8853 25.571L19.7844 33.9562C20.2688 34.4704 21.0862 34.4704 21.5706 33.9562L29.4697 25.571L29.7215 25.2746Z" fill="#006FC9"/>
</svg>
